# xmcd
#
# Track frame offsets:
#	150
#	14672
#	28467
#	44722
#	62115
#	76992
#	90030
#	103800
#	121897
#	138337
#	156212
#
# Disc length: 2308 seconds
#
# Revision: 0
# Processed by: cddbd v1.4b42PL0 Copyright (c) Steve Scherf et al.
# Submitted via: EZCDDA 4.3.3.2
#
DISCID=9109020b
DTITLE=The Wilkinsons - Shine
DYEAR=1900
DGENRE=
TTITLE0=I Wanna Be That Girl
TTITLE1=Nobody Ever Died Of A Broken Heart
TTITLE2=Feel
TTITLE3=I Go Crazy
TTITLE4=I Had A Dream
TTITLE5=Never Hold A Candle
TTITLE6=Outside Providence
TTITLE7=Shine Something Down
TTITLE8=Real Bad Mood
TTITLE9=Tough Luck
TTITLE10=A Little More Love
EXTD=
EXTT0=
EXTT1=
EXTT2=
EXTT3=
EXTT4=
EXTT5=
EXTT6=
EXTT7=
EXTT8=
EXTT9=
EXTT10=
PLAYORDER=
